<svg fill="none" height="40" viewBox="0 0 183 39" width="187.6" xmlns="http://www.w3.org/2000/svg"><title>Sperax</title><path clip-rule="evenodd" d="M25.483 22.447c-6.876 0-12.449-5.57-12.449-12.437 0-3.595-2.9-6.51-6.517-6.51C2.933 3.5 0 6.415 0 10.01s2.9 6.51 6.517 6.51h.033c6.843 0 12.383 5.571 12.415 12.438v.032c0 3.595 2.9 6.51 6.518 6.51A6.503 6.503 0 0 0 32 28.99c-.033-3.628-2.933-6.543-6.517-6.543" fill="#fff" fill-rule="evenodd"/><path clip-rule="evenodd" d="M6.55 22.448c-3.585 0-6.517 2.915-6.517 6.51s2.9 6.51 6.517 6.51a6.503 6.503 0 0 0 6.517-6.51c-.032-3.595-2.933-6.51-6.517-6.51M25.483 3.5c3.6 0 6.517 2.915 6.517 6.51a6.514 6.514 0 0 1-6.517 6.51 6.514 6.514 0 0 1-6.517-6.51 6.514 6.514 0 0 1 6.517-6.51" fill="#fff" fill-rule="evenodd"/><path d="M52.464 30.32c-6.176 0-8.864-2.848-8.864-6.976V22.8h3.392v.352c0 2.656 1.12 4 5.6 4 3.168 0 4.32-.864 4.32-2.848 0-1.952-.64-2.656-3.936-3.328l-3.648-.736c-3.68-.704-5.664-2.496-5.664-5.888 0-3.168 2.464-6.112 8-6.112 5.92 0 8.288 3.328 8.288 7.136v.384H56.56v-.352c0-2.624-1.152-4-4.992-4-3.168 0-4.448.896-4.448 2.784 0 1.952.864 2.496 3.808 3.136l3.648.768c4.032.832 5.792 2.848 5.792 6.08 0 3.36-2.432 6.144-7.904 6.144m13.84 5.216H62.88v-21.44h3.136v2.624h.16c.736-1.856 2.56-2.944 5.313-2.944 4.48 0 6.944 3.232 6.944 8.288 0 5.024-2.4 8.256-6.72 8.256-2.848 0-4.608-1.312-5.312-2.784h-.096zm0-12.064c0 2.656 1.537 3.904 4.352 3.904 3.04 0 4.32-1.408 4.32-5.312 0-3.936-1.248-5.344-4.32-5.344-2.815 0-4.352 1.248-4.352 3.904zm22.089 6.848c-5.248 0-7.712-3.328-7.712-8.288 0-4.928 2.944-8.256 7.68-8.256 4.288 0 7.296 2.56 7.296 6.912 0 .832-.096 1.696-.192 2.176H83.913c.128 2.912 1.184 4.384 4.512 4.384 2.656 0 3.68-.896 3.68-2.336v-.256h3.424v.288c0 3.264-2.848 5.376-7.136 5.376m-.096-13.632c-3.008 0-4.16 1.408-4.352 3.872h8.416c.128-2.72-1.344-3.872-4.064-3.872M101.871 30h-3.456V14h3.168v2.528h.16c.64-1.472 2.112-2.752 4.448-2.752 3.328 0 4.608 2.432 4.608 5.408v1.056h-3.456v-.64c0-2.112-.608-2.88-2.624-2.88-2.08 0-2.848.8-2.848 2.912zm15.115.32c-2.848 0-5.056-1.472-5.056-4.256 0-2.624 1.92-4 5.312-4.48l5.568-.832v-.864c0-2.368-1.088-3.072-3.584-3.072-2.528 0-3.52.8-3.52 2.912v.48h-3.328v-.32c0-3.552 2.783-6.112 7.04-6.112 4.448 0 6.688 2.688 6.688 6.56V30h-3.2v-2.496h-.16c-.928 1.504-2.752 2.816-5.76 2.816m-1.696-4.512c0 1.248.8 1.76 2.816 1.76 2.239 0 4.704-.896 4.704-4.096v-.288l-5.056.768c-1.824.256-2.464.672-2.464 1.856M131.284 30h-3.904l5.696-8v-.224l-5.696-7.68h4.031l4.289 5.888h.224l4.256-5.888h3.903l-5.695 7.808v.256l5.695 7.84h-4.031l-4.288-6.08h-.224zm17.797.384v-2.848h-2.88V12.592h2.88V9.744h9.28v2.848h2.912v14.944h-2.912v2.848zm.64-3.584h8V13.36h-8zm18.298 3.584v-2.848h-2.88V23.92h3.52v2.88h8v-4.96h-8.64v-2.848h-2.88v-6.4h2.88V9.744h9.28v2.848h2.912v3.584h-3.552V13.36h-8v4.928h8.64v2.784h2.912v6.464h-2.912v2.848z" fill="#fff"/></svg>